<svg xmlns="http://www.w3.org/2000/svg" style="display: none;">
<symbol id="burger-icon" viewBox="0 0 100 50" fill="none">
<path d="M5 5H105" stroke="currentColor" stroke-width="10" stroke-linecap="round"/>
<path d="M5 30H105" stroke="currentColor" stroke-width="10" stroke-linecap="round"/>
<path d="M5 55H66.6438" stroke="currentColor" stroke-width="10" stroke-linecap="round"/>
</symbol>
<symbol id="play" viewBox="0 0 100 100" fill="none">
<circle cx="46.5" cy="46.5" r="43.5" stroke="currentColor" stroke-width="6"/>
<path d="M74.6363 47.1484L30.5949 71.4688L31.5535 21.1675L74.6363 47.1484Z" fill="currentColor" />
</symbol>
<symbol id="envelope" viewBox="0 0 24 24">
<path d="M0 0h24v24H0V0z" fill="none"/><path d="M22 6c0-1.1-.9-2-2-2H4c-1.1 0-2 .9-2 2v12c0 1.1.9 2 2 2h16c1.1 0 2-.9 2-2V6zm-2 0l-8 5-8-5h16zm0 12H4V8l8 5 8-5v10z"/>
</symbol>
<symbol id="map-marker" viewBox="0 0 24 24">
<path d="M0 0h24v24H0z" fill="none"/><path d="M12 2C8.13 2 5 5.13 5 9c0 5.25 7 13 7 13s7-7.75 7-13c0-3.87-3.13-7-7-7zm0 9.5c-1.38 0-2.5-1.12-2.5-2.5s1.12-2.5 2.5-2.5 2.5 1.12 2.5 2.5-1.12 2.5-2.5 2.5z"/>
</symbol>
<symbol id="call" viewBox="0 0 24 24">
<path d="M0 0h24v24H0V0z" fill="none"/><path d="M20 15.45c-1.25 0-2.45-.2-3.57-.57-.1-.03-.21-.05-.31-.05-.26 0-.51.1-.71.29l-2.2 2.2c-2.83-1.44-5.15-3.75-6.59-6.59l2.2-2.21c.28-.26.36-.65.25-1C8.7 6.4 8.5 5.2 8.5 3.95c0-.55-.45-1-1-1H4c-.55 0-1 .45-1 1 0 9.39 7.61 17 17 17 .55 0 1-.45 1-1v-3.5c0-.55-.45-1-1-1zM5.03 4.95h1.5c.07.88.22 1.75.45 2.58l-1.2 1.21c-.4-1.21-.66-2.47-.75-3.79zM19 18.92c-1.32-.09-2.6-.35-3.8-.76l1.2-1.2c.85.24 1.72.39 2.6.45v1.51zM18 5.95v-3h-2v3h-3v2h3v3h2v-3h3v-2z"/>
</symbol>
<symbol id="growth" viewBox="0 0 201 110" fill="none">
<rect x="3.20129" y="101.389" width="27.0027" height="45.6968" rx="2" fill="#6DB9DA"/>
<rect x="41.4204" y="85.6029" width="33.234" height="61.483" rx="2" fill="#1FABE7"/>
<rect x="85.871" y="58.1848" width="45.6968" height="88.9011" rx="2" fill="#1185B8"/>
<rect x="142.784" y="1.27153" width="57.7442" height="145.814" rx="2" fill="#126285"/>
<path fill-rule="evenodd" clip-rule="evenodd" d="M127.685 2.71208C128.1 1.17737 126.833 -0.264599 125.401 0.11252L107.041 4.94554C105.604 5.32376 105.079 7.24688 106.096 8.40449L109.081 11.8015L85.024 37.6987L83.7187 27.7848C83.0445 22.6639 76.645 20.7314 73.2491 24.6233L41.6305 60.8598L40.773 56.5653C39.8148 51.7671 33.8251 50.0716 30.4942 53.6556L2.00814 84.3059C0.128241 86.3287 0.244028 89.4924 2.26676 91.3723C4.28949 93.2522 7.4532 93.1364 9.3331 91.1136L32.4974 66.1894L33.416 70.7899C34.3912 75.673 40.5469 77.3117 43.8208 73.5597L74.9605 37.8719L76.2194 47.4334C76.8822 52.4673 83.1083 54.4538 86.564 50.7338L115.717 19.3517L119.133 23.2398C120.151 24.3974 121.946 23.9196 122.363 22.3804L127.685 2.71208Z" fill="#82C463"/>
</symbol>
<symbol id="globe" viewBox="0 0 220 190" fill="none">
<circle cx="100" cy="100" r="100" fill="#4BABD4"/>
<path d="M57.8203 98.3063C56.5215 97.0759 53.4034 98.5098 51.9697 98.8344C51.5303 100.592 49.3516 100.663 47.6631 100.663C46.4481 100.663 45.2208 100.711 44.0065 100.663C43.5177 100.643 41.8722 98.928 41.7313 98.611C41.0391 97.0536 41 95.6273 41 93.9387C41 93.1276 41.0188 90.6298 41.7313 90.1399C42.3191 89.7358 42.4744 88.9906 42.9908 88.4741C43.3311 88.1338 43.7378 88.2352 44.0878 87.8647C44.9708 86.9297 44.9024 85.3578 45.2051 84.1472C45.803 81.7553 45.3879 78.8558 45.3879 76.4074C45.3879 74.0408 46.7921 71.4685 48.4554 69.8053C51.3163 66.9443 54.9701 66.1859 58.6328 64.747C60.2109 64.1271 62.1048 63 63.752 63C66.0727 63 68.5423 63.2977 70.7402 64.097C71.935 64.5315 73.2479 65.8257 74.4374 66.4534C75.6889 67.1139 76.8473 67.9873 77.9517 68.8708C79.5923 70.1833 81.0802 71.7637 81.9537 73.6853C82.9146 75.7995 85.6774 77.5409 87.6081 78.7577L87.6823 78.8045C90.0456 80.2944 92.92 81.5876 95.6049 82.3799C98.3401 83.187 101.301 82.6701 103.974 83.68C105.647 84.312 107.443 84.2081 109.195 84.2081C110.642 84.2081 111.333 82.3799 112.892 82.3799C114.491 82.3799 115.618 81.3242 117.138 80.9985C121.57 80.0488 126.398 80.5516 130.931 80.5516C133.638 80.5516 137.7 80.8368 138.712 83.7612C139.31 85.4903 139.206 88.2374 138.976 90.079C138.216 96.1565 133.942 100.152 129.306 103.243C128.437 103.822 127.628 105.746 127.336 106.696C127.121 107.394 127.458 107.656 126.848 108.138C125.984 108.822 126.531 109.75 125.995 110.515C125.141 111.735 125.14 112.694 123.842 113.806C123.147 114.402 122.815 115.055 122.013 115.573C121.338 116.01 121.365 116.821 120.551 117.117C120.067 117.293 119.284 117.778 118.885 118.092C117.493 119.189 116.249 120.262 114.7 121.322C113.455 122.175 111.695 122.721 110.658 123.679C109.771 124.497 108.71 124.168 109.094 125.893C109.731 128.763 110.838 131.375 113.035 133.572C115.532 136.069 117.298 138.839 118.682 142.002C120.009 145.036 116.355 156.727 112.811 152.911C111.218 151.196 110.289 149.672 108.281 148.381C106.628 147.319 105.052 146.003 103.548 144.724C102.48 143.817 101.783 142.89 100.399 142.429C99.6486 142.179 99.6602 141.465 98.9161 141.23C97.6035 140.816 95.4278 139.516 94.386 138.529C93.0878 137.299 91.6453 136.941 90.6482 135.4C90.2969 134.857 89.5103 134.779 89.1043 134.141C88.794 133.653 88.594 133.265 88.1698 132.841C86.2741 130.945 85.3652 128.913 85.2446 126.259C85.1935 125.134 84.692 124.083 84.1476 123.13C83.3401 121.717 83.1876 120.178 82.3193 118.783C81.4283 117.352 80.7873 115.825 79.9019 114.395C78.046 111.397 73.8799 109.439 70.4558 109.439C68.8468 109.439 67.5032 108.707 65.8647 108.707C63.6425 108.707 63.7033 108.213 63.2848 106.33C62.9272 104.721 61.358 102.936 60.3392 101.699C59.4467 100.615 58.8323 99.2651 57.8203 98.3063Z" fill="#F5F5F5"/>
<path d="M174.309 91.9489C174.25 92.9893 176.061 93.8265 176.744 94.3382C177.692 93.8674 178.543 94.8049 179.178 95.5521C179.635 96.0898 180.118 96.6146 180.553 97.1703C180.728 97.3941 180.582 98.7715 180.494 98.9538C180.061 99.8495 179.44 100.407 178.688 101.046C178.326 101.353 177.207 102.29 176.72 102.16C176.319 102.053 175.929 102.266 175.505 102.233C175.225 102.211 175.118 101.993 174.821 101.978C174.072 101.941 173.398 102.566 172.745 102.891C171.454 103.531 170.319 104.812 169.228 105.739C168.174 106.635 166.5 106.987 165.134 106.88C162.783 106.697 161.072 105.367 159.054 104.29C158.184 103.827 156.97 103.415 156.351 102.686C155.478 101.659 154.682 100.453 154.212 99.1783C153.956 98.4851 154.039 97.4143 153.872 96.6503C153.696 95.8464 153.649 95.0032 153.627 94.18C153.595 92.9573 153.74 91.7007 154.268 90.5869C154.848 89.3615 154.585 87.4797 154.401 86.1647L154.394 86.1142C154.169 84.5044 153.665 82.7429 153.008 81.2549C152.339 79.7389 150.996 78.6242 150.441 77.0589C150.093 76.0793 149.372 75.3239 148.713 74.5485C148.169 73.9083 147.095 74.2942 146.509 73.6043C145.908 72.8969 145.013 72.7975 144.297 72.2481C142.208 70.6463 140.616 68.3194 138.912 66.313C137.894 65.1153 136.494 63.2098 137.416 61.655C137.962 60.7357 139.225 59.7422 140.132 59.1471C143.125 57.1831 146.512 57.5625 149.631 58.4443C150.216 58.6096 151.377 58.2396 151.911 58.0094C152.302 57.8404 152.293 57.5922 152.736 57.6793C153.366 57.8027 153.574 57.2099 154.116 57.1573C154.981 57.0735 155.408 56.7114 156.392 56.8648C156.918 56.9469 157.334 56.8466 157.866 57.005C158.315 57.1384 158.666 56.8197 159.104 57.068C159.364 57.2154 159.875 57.3785 160.165 57.4361C161.177 57.6371 162.122 57.7812 163.177 58.0656C164.025 58.2943 164.93 58.8661 165.747 58.9628C166.444 59.0454 166.697 59.6395 167.321 58.817C168.36 57.4484 169.108 55.9702 169.26 54.1668C169.434 52.1164 170.004 50.2867 170.893 48.4769C171.745 46.7411 178.327 43.9338 177.96 46.9464C177.794 48.3006 177.465 49.2885 177.645 50.6657C177.793 51.7991 177.799 52.9945 177.795 54.1443C177.793 54.9602 177.642 55.6197 177.957 56.4065C178.127 56.8333 177.805 57.0982 177.98 57.5164C178.289 58.2542 178.528 59.7092 178.48 60.5438C178.42 61.5838 178.803 62.3574 178.492 63.382C178.382 63.7428 178.643 64.1207 178.511 64.5419C178.41 64.8637 178.313 65.0992 178.283 65.4475C178.151 67.0039 177.588 68.1751 176.451 69.2331C175.969 69.6812 175.689 70.3011 175.47 70.9025C175.144 71.7947 174.515 72.4449 174.22 73.357C173.918 74.2929 173.479 75.1544 173.175 76.0875C172.537 78.0434 173.231 80.6285 174.518 82.1438C175.123 82.8559 175.302 83.7273 175.918 84.4524C176.754 85.4358 176.511 85.5958 175.829 86.4937C175.247 87.2609 175.042 88.6311 174.874 89.5502C174.726 90.3553 174.356 91.1381 174.309 91.9489Z" fill="#F5F5F5"/>
<path d="M33.6953 133.371C30.8419 127.307 23.228 122.545 16.8347 121.327C15.9927 120.906 17.1244 120.282 17.0756 119.353C17.03 118.488 17.5329 115.576 16.8347 115.018C16.0769 114.411 16.5938 111.205 16.5938 110.2C16.5938 108.17 16.1606 107.028 15.1754 105.222C13.7534 102.615 10.6594 99.0798 7.06625 101.261C2.39608 104.097 6.11602 112.692 7.06625 116.73C8.39785 122.39 11.9471 126.498 13.9443 131.691C14.8883 134.145 14.6312 136.692 16.005 139.211C17.6173 142.167 19.5696 145.369 20.8759 148.471C23.145 153.86 27.3198 155.904 31.4205 159.712C36.8593 164.762 42.4618 169.165 48.6558 173.2C52.4471 175.67 54.5581 180.993 58.9595 182.46C60.368 182.929 72.4996 183.631 71.9662 181.764C69.9507 174.71 64.6321 167.119 57.3804 163.994C55.8745 163.344 54.8741 162.326 53.4195 161.585C52.0626 160.894 50.1183 160.765 48.9769 159.712C46.9983 157.885 44.7126 156.527 42.8482 154.52C39.7146 151.145 38.5148 146.918 36.1307 143.172C35.2463 141.782 35.9682 139.53 34.8996 138.355C33.9805 137.344 34.3354 134.731 33.6953 133.371Z" fill="#F5F5F5"/>
</symbol>
<symbol id="data-analysing" viewBox="0 0 124 138" fill="none">
<rect x="2" y="2" width="119.352" height="134" rx="2" stroke="#1E72C0" stroke-width="4"/>
<rect x="11.2933" y="15.1012" width="11.3352" height="11.3352" rx="1.5" stroke="#1E72C0"/>
<path d="M32.3799 17.685H112.559" stroke="#1E72C0" stroke-width="3" stroke-linecap="round"/>
<path d="M32.3799 23.4671H77.8659" stroke="#1E72C0" stroke-width="3" stroke-linecap="round"/>
<path fill-rule="evenodd" clip-rule="evenodd" d="M17.1608 24.6036C16.935 24.6197 16.7025 24.5597 16.5047 24.4168L12.8405 21.7704C12.3928 21.4471 12.292 20.822 12.6153 20.3743C12.9387 19.9265 13.5638 19.8257 14.0115 20.1491L17.0218 22.3232L25.714 13.1954C26.0949 12.7955 26.7278 12.78 27.1278 13.1609C27.5277 13.5417 27.5432 14.1747 27.1623 14.5746L17.9072 24.2935C17.7052 24.5056 17.4322 24.6096 17.1608 24.6036Z" fill="#12AB0F"/>
<rect x="11.2933" y="37.5462" width="11.3352" height="11.3352" rx="1.5" stroke="#1E72C0"/>
<path d="M32.3799 40.13H112.559" stroke="#1E72C0" stroke-width="3" stroke-linecap="round"/>
<path d="M32.3799 45.9121H77.8659" stroke="#1E72C0" stroke-width="3" stroke-linecap="round"/>
<path fill-rule="evenodd" clip-rule="evenodd" d="M17.1696 46.7918C16.942 46.8132 16.7055 46.7547 16.5036 46.6088L12.8376 43.961C12.3899 43.6376 12.2818 43.0073 12.596 42.5531C12.9103 42.099 13.528 41.993 13.9758 42.3164L17.1542 44.6121L25.7168 35.4274C26.0934 35.0234 26.7196 35.0081 27.1155 35.3932C27.5114 35.7783 27.527 36.418 27.1504 36.8219L18.121 46.5074C17.868 46.7788 17.5023 46.8748 17.1696 46.7918Z" fill="#12AB0F"/>
<rect x="11.2933" y="59.9115" width="11.3352" height="11.3352" rx="1.5" stroke="#1E72C0"/>
<path d="M32.3799 62.4953H112.559" stroke="#1E72C0" stroke-width="3" stroke-linecap="round"/>
<path d="M32.3799 68.2774H77.8659" stroke="#1E72C0" stroke-width="3" stroke-linecap="round"/>
<path fill-rule="evenodd" clip-rule="evenodd" d="M17.1696 69.1571C16.942 69.1785 16.7055 69.12 16.5036 68.9742L12.8376 66.3263C12.3899 66.0029 12.2818 65.3726 12.596 64.9185C12.9103 64.4643 13.528 64.3583 13.9758 64.6817L17.1542 66.9774L25.7168 57.7927C26.0934 57.3888 26.7196 57.3735 27.1155 57.7585C27.5114 58.1436 27.527 58.7833 27.1504 59.1873L18.121 68.8728C17.868 69.1441 17.5023 69.2401 17.1696 69.1571Z" fill="#12AB0F"/>
<rect x="11.2933" y="82.269" width="11.3352" height="11.3352" rx="1.5" stroke="#1E72C0"/>
<path d="M32.3799 84.8528H112.559" stroke="#1E72C0" stroke-width="3" stroke-linecap="round"/>
<path d="M32.3799 90.635H77.8659" stroke="#1E72C0" stroke-width="3" stroke-linecap="round"/>
<path fill-rule="evenodd" clip-rule="evenodd" d="M17.1696 91.5147C16.942 91.536 16.7055 91.4775 16.5036 91.3317L12.8376 88.6838C12.3899 88.3605 12.2818 87.7302 12.596 87.276C12.9103 86.8219 13.528 86.7159 13.9758 87.0392L17.1542 89.335L25.7168 80.1503C26.0934 79.7463 26.7196 79.731 27.1155 80.1161C27.5114 80.5012 27.527 81.1409 27.1504 81.5448L18.121 91.2303C17.868 91.5017 17.5023 91.5977 17.1696 91.5147Z" fill="#12AB0F"/>
<rect x="11.2933" y="104.745" width="11.3352" height="11.3352" rx="1.5" stroke="#1E72C0"/>
<path d="M32.3799 107.328H112.559" stroke="#1E72C0" stroke-width="3" stroke-linecap="round"/>
<path d="M32.3799 113.111H77.8659" stroke="#1E72C0" stroke-width="3" stroke-linecap="round"/>
<path fill-rule="evenodd" clip-rule="evenodd" d="M17.1696 113.99C16.942 114.012 16.7055 113.953 16.5036 113.807L12.8376 111.16C12.3899 110.836 12.2818 110.206 12.596 109.752C12.9103 109.298 13.528 109.192 13.9758 109.515L17.1542 111.811L25.7168 102.626C26.0934 102.222 26.7196 102.207 27.1155 102.592C27.5114 102.977 27.527 103.616 27.1504 104.02L18.121 113.706C17.868 113.977 17.5024 114.073 17.1696 113.99Z" fill="#12AB0F"/>
</symbol>
<symbol id="whatsapp" viewBox="0 0 204 217" fill="none">
<path d="M31.7229 57.2874C1.60077 75.1838 15.1703 131.674 25.7203 157.682C23.1737 164.775 23.8649 185.072 47.0022 209.516C75.9238 240.071 142.498 157.682 142.498 144.587C142.498 131.492 190.519 124.944 180.151 109.667C169.783 94.3897 211.255 88.3878 201.978 42.01C192.702 -4.3679 164.871 27.2782 121.762 51.8312C78.6523 76.3841 69.3755 34.9169 31.7229 57.2874Z" fill="#B8EFAA"/>
<path d="M16.8419 35.7621C-10.7581 52.1621 1.67527 103.929 11.3419 127.762C9.0086 134.262 9.64193 152.862 30.8419 175.262C57.3419 203.262 118.342 127.762 118.342 115.762C118.342 103.762 162.342 97.7622 152.842 83.7622C143.342 69.7622 181.342 64.2622 172.842 21.7622C164.342 -20.7378 138.842 8.26215 99.3419 30.7621C59.8419 53.2621 51.3419 15.2621 16.8419 35.7621Z" fill="#65B2DD" fill-opacity="0.7"/>
<path d="M22.7229 48.2874C-7.39923 66.1838 6.17028 122.674 16.7203 148.682C14.1737 155.775 14.8649 176.072 38.0022 200.516C66.9238 231.071 133.498 148.682 133.498 135.587C133.498 122.492 181.519 115.944 171.151 100.667C160.783 85.3897 202.255 79.3878 192.978 33.01C183.702 -13.3679 155.871 18.2782 112.762 42.8312C69.6523 67.3841 60.3755 25.9169 22.7229 48.2874Z" fill="#6FC249" fill-opacity="0.85"/>
<path fill-rule="evenodd" clip-rule="evenodd" d="M87.5 146C108.763 146 126 128.763 126 107.5C126 86.237 108.763 69 87.5 69C66.237 69 49 86.237 49 107.5C49 115.292 51.3151 122.544 55.295 128.605L55.0699 128.367L49.9602 143.451L65.3068 139.193L64.6199 138.467C71.0164 143.201 78.9313 146 87.5 146Z" fill="white"/>
<path fill-rule="evenodd" clip-rule="evenodd" d="M87.5 146C108.763 146 126 128.763 126 107.5C126 86.237 108.763 69 87.5 69C66.237 69 49 86.237 49 107.5C49 115.292 51.3151 122.544 55.295 128.605L55.0699 128.367L49.9602 143.451L65.3068 139.193L64.6199 138.467C71.0164 143.201 78.9313 146 87.5 146Z" fill="white"/>
<path fill-rule="evenodd" clip-rule="evenodd" d="M87.9185 139.304C105.715 139.304 120.141 124.878 120.141 107.082C120.141 89.2854 105.715 74.8587 87.9185 74.8587C70.1223 74.8587 55.6957 89.2854 55.6957 107.082C55.6957 113.604 57.6333 119.673 60.9644 124.746L60.7759 124.546L56.4993 137.171L69.3437 133.607L68.7688 132.999C74.1224 136.961 80.7468 139.304 87.9185 139.304Z" fill="#5DD326"/>
<path fill-rule="evenodd" clip-rule="evenodd" d="M87.9185 139.304C105.715 139.304 120.141 124.878 120.141 107.082C120.141 89.2854 105.715 74.8587 87.9185 74.8587C70.1223 74.8587 55.6957 89.2854 55.6957 107.082C55.6957 113.604 57.6333 119.673 60.9644 124.746L60.7759 124.546L56.4993 137.171L69.3437 133.607L68.7688 132.999C74.1224 136.961 80.7468 139.304 87.9185 139.304Z" fill="#70E539"/>
<path d="M91.6156 115.816C84.452 113.652 80.7967 108.446 79.5464 105.351C79.3233 104.798 79.4278 104.179 79.761 103.685L81.6597 100.871C81.9951 100.373 82.0921 99.7528 81.9083 99.1819C81.0053 96.378 79.3237 91.9536 78.0531 91.3258C76.5504 90.5833 75.2601 91.3092 74.5419 91.5477C74.329 91.6184 74.1017 91.652 73.8958 91.7409C70.2933 93.2972 69.8166 98.9054 70.0497 101.842C70.0648 102.033 70.1095 102.214 70.1838 102.39C72.7658 108.522 80.7096 120.911 92.8263 123.443C104.056 125.791 106.275 120.193 105.974 116.314C105.923 115.654 105.461 115.116 104.849 114.863L98.0366 112.04C97.2232 111.703 96.2851 111.937 95.726 112.617L93.6214 115.177C93.135 115.769 92.3487 116.038 91.6156 115.816Z" fill="white"/>
</symbol>
<symbol id="gmail" viewBox="0 0 204 217" fill="none">
<path d="M31.7229 57.2874C1.60077 75.1838 15.1703 131.674 25.7203 157.682C23.1737 164.775 23.8649 185.072 47.0022 209.516C75.9238 240.071 142.498 157.682 142.498 144.587C142.498 131.492 190.519 124.944 180.151 109.667C169.783 94.3897 211.255 88.3878 201.978 42.01C192.702 -4.3679 164.871 27.2782 121.762 51.8312C78.6523 76.3841 69.3755 34.9169 31.7229 57.2874Z" fill="#F5B9B6"/>
<path d="M16.8419 35.7621C-10.7581 52.1621 1.67527 103.929 11.3419 127.762C9.0086 134.262 9.64193 152.862 30.8419 175.262C57.3419 203.262 118.342 127.762 118.342 115.762C118.342 103.762 162.342 97.7622 152.842 83.7622C143.342 69.7622 181.342 64.2622 172.842 21.7622C164.342 -20.7378 138.842 8.26215 99.3419 30.7621C59.8419 53.2621 51.3419 15.2621 16.8419 35.7621Z" fill="#65B2DD" fill-opacity="0.7"/>
<path d="M22.7229 48.2874C-7.39923 66.1838 6.17028 122.674 16.7203 148.682C14.1737 155.775 14.8649 176.072 38.0022 200.516C66.9238 231.071 133.498 148.682 133.498 135.587C133.498 122.492 181.519 115.944 171.151 100.667C160.783 85.3897 202.255 79.3878 192.978 33.01C183.702 -13.3679 155.871 18.2782 112.762 42.8312C69.6523 67.3841 60.3755 25.9169 22.7229 48.2874Z" fill="#D54B3D" fill-opacity="0.85"/>
<path d="M47 118.781C47 118.094 47.0938 117.469 47.2812 116.906C47.4688 116.344 47.5 115.625 47.375 114.75C49.3125 110.625 51.5 106.812 53.9375 103.312C56.4375 99.75 59.4062 96.625 62.8438 93.9375C63.4062 93.5 63.8438 93.0625 64.1562 92.625C64.5312 92.125 64.875 91.6562 65.1875 91.2188C65.5625 90.7812 65.9688 90.4062 66.4062 90.0938C66.8438 89.7188 67.4062 89.4688 68.0938 89.3438C69.6562 87.5312 71.5312 85.875 73.7188 84.375C75.9062 82.875 78.1875 81.4375 80.5625 80.0625C82.9375 78.6875 85.3125 77.2812 87.6875 75.8438C90.125 74.4062 92.3125 72.8438 94.25 71.1562C94.9375 71.5938 95.4688 71.75 95.8438 71.625C96.2812 71.4375 96.7188 71.4062 97.1562 71.5312C97.7188 72.7188 98.4375 73.5625 99.3125 74.0625C100.25 74.5 101.188 74.9688 102.125 75.4688C103.125 75.9062 104.031 76.4688 104.844 77.1562C105.719 77.7812 106.375 78.6562 106.812 79.7812C106.375 79.7812 106.156 79.9375 106.156 80.25C106.219 80.5625 106.312 80.9062 106.438 81.2812C106.562 81.6562 106.625 82 106.625 82.3125C106.625 82.625 106.344 82.7812 105.781 82.7812C105.781 83.2188 106 83.4375 106.438 83.4375C106.875 83.4375 107.094 83.6562 107.094 84.0938C107.094 84.4688 107 84.7812 106.812 85.0312C106.688 85.2188 106.688 85.5625 106.812 86.0625C105.312 87.0625 103.625 88.0312 101.75 88.9688C99.9375 89.8438 98 90.7812 95.9375 91.7812C93.9375 92.7812 91.875 93.875 89.75 95.0625C87.6875 96.1875 85.625 97.5 83.5625 99C81.5 100.5 79.4062 102.156 77.2812 103.969C75.2188 105.781 73.2188 107.719 71.2812 109.781C69.3438 111.781 67.5312 113.875 65.8438 116.062C64.1562 118.188 62.7188 120.281 61.5312 122.344C61.6562 122.656 61.8125 122.938 62 123.188C62.25 123.438 62.4375 123.719 62.5625 124.031C64.9375 124.156 67.1562 124.156 69.2188 124.031C71.2812 123.844 73.3438 123.969 75.4062 124.406C75.6562 124.219 75.8125 123.969 75.875 123.656C75.9375 123.344 76.125 123.125 76.4375 123C80.6875 122.562 84.6562 121.875 88.3438 120.938C92.0312 119.938 95.7812 118.938 99.5938 117.938C98.4688 117.5 97.4688 117.156 96.5938 116.906C96.2188 116.531 96.2188 116.219 96.5938 115.969C97.0312 115.656 97.375 115.344 97.625 115.031C96.625 114.469 95.7812 113.719 95.0938 112.781C94.4688 111.844 94.0938 110.625 93.9688 109.125C94.4062 108.75 94.625 108.312 94.625 107.812C94.625 107.312 94.4062 106.906 93.9688 106.594C93.6562 106.469 93.4688 106.469 93.4062 106.594C93.3438 106.719 93.2812 106.844 93.2188 106.969C93.2188 107.094 93.1562 107.219 93.0312 107.344C92.9688 107.469 92.8125 107.469 92.5625 107.344C92.625 106.656 92.7812 106.094 93.0312 105.656C93.2812 105.219 93.4688 104.688 93.5938 104.062L101.375 98.9062C102.188 99.5312 103.188 100.188 104.375 100.875C105.562 101.562 106.812 102.25 108.125 102.938C109.438 103.625 110.781 104.344 112.156 105.094C113.531 105.781 114.812 106.469 116 107.156C117.125 107.656 118.094 108.281 118.906 109.031C119.719 109.719 120.5 110.469 121.25 111.281C122 112.031 122.75 112.781 123.5 113.531C124.25 114.281 125.156 114.906 126.219 115.406C126.094 116.406 126.156 117.219 126.406 117.844C126.656 118.469 126.719 119.219 126.594 120.094C125.406 122.219 123.969 124.031 122.281 125.531C120.594 126.969 118.688 128.219 116.562 129.281C114.5 130.344 112.281 131.25 109.906 132C107.531 132.688 105.094 133.375 102.594 134.062C100.094 134.688 97.5625 135.375 95 136.125C92.5 136.812 90.0312 137.625 87.5938 138.562C86.5312 138.562 85.625 138.594 84.875 138.656C84.125 138.719 83.4062 138.812 82.7188 138.938C82.0312 139.062 81.3438 139.188 80.6562 139.312C79.9688 139.438 79.2188 139.531 78.4062 139.594C78.0938 139.531 77.875 139.594 77.75 139.781C77.6875 139.969 77.5625 140.125 77.375 140.25C76.125 140.438 75 140.531 74 140.531C73 140.531 72.1562 140.531 71.4688 140.531C70.5938 140.531 69.6875 140.656 68.75 140.906C67.8125 141.156 66.9375 141.25 66.125 141.188C60.5 140.938 56.0938 138.938 52.9062 135.188C49.7188 131.438 47.9688 126.281 47.6562 119.719C47.7188 119.406 47.6562 119.219 47.4688 119.156C47.2812 119.031 47.125 118.906 47 118.781Z" fill="white"/>
</symbol>
<symbol id="facebook" viewBox="0 0 204 217" fill="none">
<path d="M31.7229 51.2874C1.60077 69.1838 15.1703 125.674 25.7203 151.682C23.1737 158.775 23.8649 179.072 47.0022 203.516C75.9238 234.071 142.498 151.682 142.498 138.587C142.498 125.492 190.519 118.944 180.151 103.667C169.783 88.3897 211.255 82.3878 201.978 36.01C192.702 -10.3679 164.871 21.2782 121.762 45.8312C78.6523 70.3841 69.3755 28.9169 31.7229 51.2874Z" fill="#B0B8F8"/>
<path d="M16.8419 35.7621C-10.7581 52.1621 1.67527 103.929 11.3419 127.762C9.0086 134.262 9.64193 152.862 30.8419 175.262C57.3419 203.262 118.342 127.762 118.342 115.762C118.342 103.762 162.342 97.7622 152.842 83.7622C143.342 69.7622 181.342 64.2622 172.842 21.7622C164.342 -20.7378 138.842 8.26215 99.3419 30.7621C59.8419 53.2621 51.3419 15.2621 16.8419 35.7621Z" fill="#E068D4" fill-opacity="0.7"/>
<path d="M22.7229 42.2874C-7.39923 60.1838 6.17028 116.674 16.7203 142.682C14.1737 149.775 14.8649 170.072 38.0022 194.516C66.9238 225.071 133.498 142.682 133.498 129.587C133.498 116.492 181.519 109.944 171.151 94.6671C160.783 79.3897 202.255 73.3878 192.978 27.01C183.702 -19.3679 155.871 12.2782 112.762 36.8312C69.6523 61.3841 60.3755 19.9169 22.7229 42.2874Z" fill="#7F83EB" fill-opacity="0.85"/>
<path d="M58.3419 111.637C56.4669 110.575 55.0294 109.075 54.0294 107.137C53.0294 105.2 52.4669 103.356 52.3419 101.606C52.5294 100.106 52.9357 98.9496 53.5607 98.1372C54.1232 97.2622 54.8107 96.5746 55.6232 96.0746C56.4357 95.5122 57.2794 95.1059 58.1544 94.8559C59.0294 94.5434 59.8732 94.2934 60.6857 94.1059L62.0919 94.5746C62.4044 94.8872 62.7169 95.1684 63.0294 95.4184C63.4044 95.6684 63.7481 95.9184 64.0607 96.1684C64.6857 95.9184 65.0607 95.5434 65.1857 95.0434C65.3731 94.5434 65.5607 94.0434 65.7481 93.5434C65.9357 92.8559 66.1544 92.1684 66.4044 91.4809C66.6544 90.7934 66.9669 90.1059 67.3419 89.4184C67.2794 88.8559 67.3107 88.3559 67.4357 87.9184C67.5607 87.4809 67.6857 87.1059 67.8107 86.7934C67.4357 86.4809 67.1544 86.3246 66.9669 86.3246C66.8419 86.2622 66.5919 86.1684 66.2169 86.0434C66.0294 86.0434 65.8419 86.0434 65.6544 86.0434C65.4669 85.9809 65.2481 85.9184 64.9981 85.8559C64.0607 85.1684 63.4357 84.6059 63.1231 84.1684C62.8731 83.6684 62.5919 83.1684 62.2794 82.6684C61.9669 82.1684 61.6857 81.7309 61.4357 81.3559C61.1857 80.9809 60.9044 80.6372 60.5919 80.3246L59.4669 79.5746L60.0294 78.4496C60.1544 78.3246 60.2169 78.1684 60.2169 77.9809C60.2169 77.7309 60.0919 77.3872 59.8419 76.9496C59.6544 76.1372 59.6232 75.5434 59.7482 75.1684L59.9357 74.0434C60.5607 73.2309 60.9044 72.7622 60.9669 72.6372L61.9044 71.6996C63.3419 71.3246 64.8107 70.9184 66.3107 70.4809C67.8107 69.9809 69.2794 69.4809 70.7169 68.9809C72.1544 68.4809 73.6231 67.9809 75.1231 67.4809C76.6231 66.9809 78.1231 66.5434 79.6231 66.1684C80.1231 65.7309 80.6544 65.4809 81.2169 65.4184C81.8419 65.2934 82.4044 65.1996 82.9044 65.1371C83.3419 65.1371 83.7481 65.1059 84.1231 65.0434C84.4981 64.9809 84.7794 64.8246 84.9669 64.5746C86.0294 64.1996 87.0607 63.8871 88.0607 63.6371C89.9357 63.1371 92.4044 62.5434 95.4669 61.8559C98.5294 61.1684 101.967 60.6684 105.779 60.3559L107.748 60.2621C108.123 60.3246 108.498 60.3559 108.873 60.3559C109.248 60.2934 109.623 60.2621 109.998 60.2621C113.248 60.2621 115.404 61.2621 116.467 63.2621C117.092 63.5746 117.654 63.9809 118.154 64.4809C118.654 64.9184 119.123 65.3559 119.561 65.7934C119.873 66.1059 120.154 66.3871 120.404 66.6371C120.654 66.8246 120.873 66.9809 121.061 67.1059L121.811 67.8559C122.498 69.3559 122.623 70.8246 122.186 72.2622C121.811 73.0122 121.404 73.4496 120.967 73.5746C120.529 73.6996 120.092 73.8246 119.654 73.9496L118.436 74.6059C117.623 74.5434 116.998 74.5122 116.561 74.5122C116.186 74.5122 115.748 74.5122 115.248 74.5122C113.373 74.5122 111.186 74.6372 108.686 74.8872C106.248 75.0746 103.748 75.3872 101.186 75.8246C98.6231 76.1996 96.1231 76.6996 93.6857 77.3246C91.2481 77.8872 89.1231 78.5122 87.3107 79.1996C86.8107 79.5746 86.1544 79.9184 85.3419 80.2309C85.1544 80.2934 84.8731 80.4496 84.4981 80.6996C84.5607 81.1996 84.5607 81.6996 84.4981 82.1996C84.4357 82.6372 84.3419 83.0746 84.2169 83.5122C84.1544 83.8246 84.0919 84.1684 84.0294 84.5434C84.0294 84.8559 83.9981 85.1996 83.9357 85.5746C82.6231 87.1372 81.9981 88.9809 82.0607 91.1059L81.5919 92.0434C81.3419 92.2934 81.1231 92.6684 80.9357 93.1684C80.8107 93.6059 80.8107 94.0746 80.9357 94.5746L81.3107 95.6996C82.5607 95.5746 83.7794 95.4496 84.9669 95.3246C86.2169 95.1372 87.5294 94.9496 88.9044 94.7622C90.6544 94.4496 92.4044 94.1996 94.1544 94.0122C95.9669 93.7622 97.8419 93.6372 99.7794 93.6372H103.436L102.592 94.4809L103.623 94.5746L103.061 96.0746C103.498 96.2622 103.811 96.4184 103.998 96.5434C104.248 96.6059 104.467 96.6996 104.654 96.8246L105.311 97.7622C105.623 97.9496 105.904 98.2622 106.154 98.6996C106.404 99.0746 106.561 99.6059 106.623 100.293L106.342 101.231L101.936 106.856L101.373 107.606L100.436 107.325C99.2481 107.262 98.1231 107.387 97.0607 107.7C96.5607 107.825 96.0294 107.981 95.4669 108.168C94.9044 108.293 94.3419 108.356 93.7794 108.356C92.2794 108.606 91.0294 108.825 90.0294 109.012C89.0294 109.137 88.0294 109.262 87.0294 109.387C85.6544 109.637 84.3107 109.887 82.9981 110.137C81.7481 110.325 80.5607 110.637 79.4357 111.075C78.7481 111.137 78.3419 111.168 78.2169 111.168C78.0919 111.106 77.9669 111.075 77.8419 111.075C77.2169 111.075 76.5919 111.168 75.9669 111.356C75.3419 111.543 74.7481 111.731 74.1857 111.918C73.8107 112.231 73.5607 112.575 73.4357 112.95C73.3107 113.262 73.1857 113.606 73.0607 113.981C72.9357 114.418 72.7481 114.856 72.4981 115.293C72.3107 115.668 72.0607 116.075 71.7481 116.512L71.8419 118.2C71.2794 118.325 70.9981 118.418 70.9981 118.481C70.9981 118.481 70.9669 118.481 70.9044 118.481C70.9044 118.981 70.8107 119.45 70.6231 119.887C70.4981 120.325 70.3731 120.731 70.2481 121.106C70.1231 121.356 70.0294 121.575 69.9669 121.762C69.9044 121.95 69.8731 122.137 69.8731 122.325C70.4981 123.45 70.6544 124.731 70.3419 126.168C70.0919 127.356 69.6231 128.418 68.9357 129.356C68.2481 130.231 67.4357 130.918 66.4981 131.418C65.4981 131.543 64.7481 131.512 64.2481 131.325C63.8107 131.137 63.3419 130.95 62.8419 130.762C62.5294 130.637 62.2169 130.543 61.9044 130.481C61.5919 130.356 61.2794 130.262 60.9669 130.2L59.8419 129.262C59.6544 128.887 59.4357 128.543 59.1857 128.231C58.9357 127.856 58.6857 127.481 58.4357 127.106C58.1232 126.668 57.8107 126.231 57.4982 125.793C57.1857 125.356 56.9044 124.856 56.6544 124.293C56.2169 122.106 56.1232 120.293 56.3732 118.856C56.6857 117.356 57.0919 115.887 57.5919 114.45C57.7169 113.95 57.8419 113.481 57.9669 113.043C58.0919 112.606 58.2169 112.137 58.3419 111.637Z" fill="white"/>
</symbol>
<symbol id="linkedin" viewBox="0 0 204 217" fill="none">
<path d="M31.7229 51.2874C1.60078 69.1838 15.1703 125.674 25.7203 151.682C23.1738 158.775 23.865 179.072 47.0022 203.516C75.9238 234.071 142.498 151.682 142.498 138.587C142.498 125.492 190.519 118.944 180.151 103.667C169.783 88.3897 211.255 82.3878 201.978 36.01C192.702 -10.3679 164.871 21.2782 121.762 45.8312C78.6523 70.3841 69.3756 28.9169 31.7229 51.2874Z" fill="#A4D3ED"/>
<path d="M16.8419 35.7621C-10.7581 52.1621 1.67527 103.929 11.3419 127.762C9.0086 134.262 9.64193 152.862 30.8419 175.262C57.3419 203.262 118.342 127.762 118.342 115.762C118.342 103.762 162.342 97.7622 152.842 83.7622C143.342 69.7622 181.342 64.2622 172.842 21.7622C164.342 -20.7378 138.842 8.26215 99.3419 30.7621C59.8419 53.2621 51.3419 15.2621 16.8419 35.7621Z" fill="#5E47F0" fill-opacity="0.7"/>
<path d="M22.7229 42.2874C-7.39923 60.1838 6.17028 116.674 16.7203 142.682C14.1737 149.775 14.8649 170.072 38.0022 194.516C66.9238 225.071 133.498 142.682 133.498 129.587C133.498 116.492 181.519 109.944 171.151 94.6671C160.783 79.3897 202.255 73.3878 192.978 27.01C183.702 -19.3679 155.871 12.2782 112.762 36.8312C69.6523 61.3841 60.3755 19.9169 22.7229 42.2874Z" fill="#0074B2" fill-opacity="0.85"/>
<path d="M38.7266 122.367C38.0703 121.945 37.5547 121.406 37.1797 120.75C36.7578 120.094 36.4297 119.391 36.1953 118.641C35.9141 117.891 35.7031 117.117 35.5625 116.32C35.375 115.477 35.1875 114.68 35 113.93C35 113.273 35.1406 112.805 35.4219 112.523C35.7031 112.195 36.0078 111.891 36.3359 111.609C37.4609 111.563 38.4688 111.469 39.3594 111.328C40.25 111.188 41.1172 111.047 41.9609 110.906C42.8047 110.766 43.6484 110.648 44.4922 110.555C45.336 110.414 46.2501 110.344 47.2344 110.344C47.9375 108.891 48.5938 107.508 49.2031 106.195C49.8124 104.836 50.3985 103.547 50.961 102.328C51.2422 101.156 51.5938 100.078 52.0156 99.0937C52.4844 98.0625 52.9296 97.1015 53.3515 96.2109C53.7734 95.2734 54.1484 94.3593 54.4765 93.4687C54.8046 92.5312 55.0156 91.5468 55.1094 90.5156C55.6719 88.875 56.1641 87.375 56.586 86.0156C57.0547 84.6093 57.4062 82.9453 57.6406 81.0234C55.8594 81.3046 54.4296 81.5859 53.3515 81.8672C52.2734 82.1015 51.5 82.3359 51.0312 82.5703C50.0938 82.5234 49.3438 82.3359 48.7812 82.0078C48.2656 81.6796 47.8438 81.2812 47.5156 80.8125C47.1874 80.3437 46.9062 79.8046 46.6719 79.1953C46.4375 78.5859 46.1562 77.9531 45.8281 77.2969C46.0156 76.875 46.0625 76.2656 45.9688 75.4687C45.875 74.625 45.5938 74.0156 45.125 73.6406C45.5 73.5469 45.7812 73.2422 45.9688 72.7266C46.1562 72.1641 46.1797 71.7422 46.0391 71.4609C46.8359 71.2266 47.6796 71.0859 48.5703 71.0391C49.4609 70.9453 50.3281 70.875 51.1719 70.8281C52.0625 70.7344 52.9062 70.6406 53.7031 70.5469C54.5 70.4062 55.1796 70.1484 55.7421 69.7734C58.1796 69.6797 60.711 69.5859 63.336 69.4922C66.0079 69.3984 68.4688 69.2812 70.7188 69.1406C71.5625 69.4219 72.5235 69.5625 73.6016 69.5625C74.7266 69.5625 75.8282 69.6328 76.9062 69.7734C78.0312 69.9141 79.0156 70.2187 79.8593 70.6875C80.75 71.1562 81.3594 71.9766 81.6875 73.1484C82.3907 73.2422 82.9062 73.4297 83.2343 73.7109C83.6093 73.9922 83.8438 74.3437 83.9375 74.7656C84.0312 75.1406 84.0546 75.5859 84.0079 76.1016C84.0079 76.5703 84.0079 77.0391 84.0079 77.5078C83.2579 78.0703 82.2968 78.539 81.125 78.914C80 79.2422 78.7579 79.5234 77.3984 79.7578C76.039 79.9453 74.6093 80.0859 73.1093 80.1796C71.6562 80.2265 70.2266 80.2734 68.8204 80.3203C68.5859 81.8672 68.1641 83.6953 67.5546 85.8046C66.9921 87.8672 66.4062 89.9062 65.7969 91.9218C65.1875 93.8906 64.6484 95.6718 64.1796 97.2656C63.7578 98.8125 63.5703 99.8203 63.6171 100.289C63.1484 101.367 62.75 102.281 62.4219 103.031C62.1406 103.781 61.8594 104.484 61.5781 105.141C61.3438 105.797 61.0859 106.453 60.8046 107.109C60.5703 107.719 60.2656 108.422 59.8906 109.219H64.6719C64.7656 109.734 64.9765 110.086 65.3046 110.273C65.6328 110.461 65.9844 110.625 66.3594 110.766C66.7344 110.906 67.0625 111.094 67.3438 111.328C67.6718 111.516 67.8359 111.844 67.8359 112.313C68.7265 112.547 69.289 112.898 69.5234 113.367C69.7579 113.836 69.8046 114.352 69.6641 114.914C69.5704 115.43 69.3359 115.969 68.9609 116.531C68.6329 117.094 68.3046 117.586 67.9766 118.008C67.5546 117.914 67.1562 118.031 66.7812 118.359C66.4062 118.641 66.0546 118.969 65.7265 119.344C64.3671 119.156 63.0312 119.133 61.7188 119.273C60.4062 119.414 59.1875 119.531 58.0625 119.625C57.8281 119.672 57.7344 119.813 57.7812 120.047C57.8281 120.234 57.7812 120.375 57.6406 120.469C56.1875 120 54.6875 119.813 53.1406 119.906C51.6406 120 50.0938 120.234 48.5 120.609C46.9531 120.938 45.3594 121.289 43.7188 121.664C42.0781 122.086 40.4141 122.32 38.7266 122.367ZM87.3829 114.914C86.9141 115.289 86.6329 115.781 86.5391 116.391C86.4454 116.953 86.3282 117.516 86.1875 118.078C86.0469 118.641 85.7891 119.133 85.4141 119.555C85.086 119.93 84.4765 120.094 83.5859 120.047C83.3984 120.281 83.3516 120.422 83.4454 120.469C83.5859 120.516 83.7031 120.727 83.7968 121.102C83.1406 121.008 82.6719 121.055 82.3907 121.242C82.1094 121.43 81.7579 121.57 81.3359 121.664C80.2579 121.336 79.3438 120.75 78.5938 119.906C77.8907 119.016 77.2579 118.055 76.6954 117.023C76.1796 115.992 75.711 114.938 75.2891 113.859C74.9141 112.781 74.5157 111.844 74.0938 111.047C74.0938 110.859 74.1875 110.789 74.375 110.836C74.5156 110.836 74.6562 110.836 74.7968 110.836C74.5624 110.367 74.3984 109.852 74.3046 109.289C74.1641 108.68 73.9296 108.188 73.6016 107.813C74.961 104.906 76.414 101.883 77.9609 98.7422C79.5079 95.5546 81.0546 92.3437 82.6016 89.1093C84.1954 85.8281 85.7657 82.5468 87.3125 79.2656C88.9062 75.9375 90.4296 72.6797 91.8829 69.4922C93.1954 69.9609 94.4609 70.5234 95.6796 71.1797C96.9454 71.7891 98.0938 72.5156 99.1251 73.3594C100.156 74.2031 101.023 75.1875 101.727 76.3125C102.477 77.3906 102.969 78.6328 103.203 80.039C103.109 80.3203 102.992 80.414 102.852 80.3203C102.711 80.2265 102.594 80.2734 102.5 80.4609C102.734 80.7422 102.852 80.9531 102.852 81.0937C102.898 81.1875 102.898 81.3046 102.852 81.4453C102.805 81.539 102.781 81.6796 102.781 81.8672C102.781 82.0546 102.898 82.3125 103.133 82.6406C102.898 82.5937 102.734 82.6406 102.641 82.7812C102.547 82.875 102.383 82.875 102.148 82.7812C102.383 83.4375 102.453 83.9531 102.359 84.3281C102.266 84.7031 102.125 85.0546 101.937 85.3828C101.75 85.664 101.586 85.9922 101.445 86.3672C101.352 86.6953 101.398 87.164 101.586 87.7734C101.398 87.7734 101.258 87.8203 101.164 87.914C101.117 87.9609 101.07 88.0312 101.023 88.125C100.977 88.2187 100.906 88.3125 100.812 88.4062C100.766 88.4531 100.648 88.4531 100.461 88.4062C100.602 89.625 100.648 90.8672 100.602 92.1328C100.555 93.3515 100.508 94.6172 100.461 95.9296C100.414 97.1953 100.414 98.5078 100.461 99.8672C100.508 101.227 100.695 102.633 101.023 104.086C103.039 102.914 104.656 101.391 105.875 99.5156C107.141 97.6406 108.125 95.5546 108.828 93.2578C109.578 90.9609 110.141 88.5 110.516 85.875C110.937 83.25 111.359 80.5781 111.781 77.8594C112.297 77.3437 112.695 76.7109 112.977 75.9609C113.305 75.2109 113.562 74.4375 113.75 73.6406C113.984 72.8437 114.195 72.0469 114.383 71.25C114.617 70.4062 114.922 69.6562 115.297 69C116.141 69.0938 116.844 69.3516 117.406 69.7734C118.016 70.1484 118.578 70.5937 119.094 71.1094C119.609 71.5781 120.148 72.0234 120.711 72.4453C121.273 72.8672 121.977 73.1484 122.82 73.2891C123.477 74.2266 124.086 75.1406 124.648 76.0312C125.211 76.875 125.586 77.8359 125.773 78.914C125.492 79.3828 125.281 79.8984 125.141 80.4609C125 81.0234 124.836 81.5859 124.648 82.1484C124.508 82.7109 124.297 83.2265 124.016 83.6953C123.734 84.164 123.336 84.5625 122.82 84.8906C122.68 86.2968 122.469 87.6093 122.187 88.8281C121.906 90.0468 121.648 91.2422 121.414 92.414C121.18 93.5859 120.969 94.8046 120.781 96.0703C120.594 97.3359 120.523 98.7187 120.57 100.219C120.148 101.578 119.68 102.984 119.164 104.438C118.648 105.844 118.273 107.156 118.039 108.375C117.148 109.078 116.445 109.945 115.93 110.977C115.414 112.008 114.875 113.039 114.312 114.07C114.078 114.258 113.937 114.305 113.891 114.211C113.844 114.07 113.633 113.977 113.258 113.93C113.305 114.352 113.211 114.633 112.977 114.773C112.789 114.867 112.812 115.195 113.047 115.758C112.25 116.133 111.547 116.625 110.937 117.234C110.328 117.844 109.648 118.406 108.898 118.922C108.195 119.438 107.352 119.789 106.367 119.977C105.43 120.117 104.187 119.906 102.641 119.344C100.344 117.656 98.2812 115.711 96.4532 113.508C94.6251 111.305 93.1718 108.703 92.0938 105.703C91.625 105.844 91.2735 106.148 91.0391 106.617C90.8046 107.086 90.5938 107.578 90.4062 108.094C90.2188 108.609 90.0312 109.078 89.8438 109.5C89.6562 109.922 89.375 110.133 89 110.133C88.9062 110.555 88.7188 110.953 88.4375 111.328C88.2032 111.656 87.9688 112.008 87.7343 112.383C87.5 112.711 87.3124 113.086 87.1718 113.508C87.0781 113.93 87.1484 114.398 87.3829 114.914Z" fill="white"/>
</symbol>
<symbol id="twitter" viewBox="0 0 204 217" fill="none">
<path d="M31.7229 51.2874C1.60078 69.1838 15.1703 125.674 25.7203 151.682C23.1738 158.775 23.865 179.072 47.0022 203.516C75.9238 234.071 142.498 151.682 142.498 138.587C142.498 125.492 190.519 118.944 180.151 103.667C169.783 88.3897 211.255 82.3878 201.978 36.01C192.702 -10.3679 164.871 21.2782 121.762 45.8312C78.6523 70.3841 69.3756 28.9169 31.7229 51.2874Z" fill="#B9E4F7"/>
<path d="M16.8419 35.7621C-10.7581 52.1621 1.67527 103.929 11.3419 127.762C9.0086 134.262 9.64193 152.862 30.8419 175.262C57.3419 203.262 118.342 127.762 118.342 115.762C118.342 103.762 162.342 97.7622 152.842 83.7622C143.342 69.7622 181.342 64.2622 172.842 21.7622C164.342 -20.7378 138.842 8.26215 99.3419 30.7621C59.8419 53.2621 51.3419 15.2621 16.8419 35.7621Z" fill="#37E6BC" fill-opacity="0.7"/>
<path d="M22.7229 42.2874C-7.39922 60.1838 6.17029 116.674 16.7203 142.682C14.1738 149.775 14.865 170.072 38.0022 194.516C66.9238 225.071 133.498 142.682 133.498 129.587C133.498 116.492 181.519 109.944 171.151 94.6671C160.783 79.3897 202.255 73.3878 192.978 27.01C183.702 -19.3679 155.871 12.2782 112.762 36.8312C69.6523 61.3841 60.3756 19.9169 22.7229 42.2874Z" fill="#29A4DA" fill-opacity="0.85"/>
<path d="M44 129.448C90.145 158.068 124.802 107.742 120.972 82.7714C122.312 81.811 130.546 74.1276 129.971 74.5118C129.512 74.8191 123.78 76.0485 120.972 76.6247C124.802 73.3977 126.652 68.8773 127.099 67.0205C124.189 69.3255 118.611 70.6701 116.185 71.0543C95.5062 56.648 83.6349 76.4326 86.124 88.1497C70.8062 89.5327 55.4884 75.9204 49.7442 68.9414C43.7702 79.698 50.7016 89.8144 54.914 93.5281C52.9226 93.0671 49.2336 91.9274 47.638 91.4151C46.5657 101.864 55.8713 107.422 60.6581 108.895C59.7391 109.97 55.9351 109.983 54.1481 109.855C54.6076 117.846 64.9344 121.252 70.0403 121.956C60.2369 130.101 48.5953 130.344 44 129.448Z" fill="white"/>
</symbol>
</svg>
  


